<?xml version="1.0" encoding="utf-8"?>
<!-- Generator: Adobe Illustrator 25.3.1, SVG Export Plug-In . SVG Version: 6.00 Build 0)  -->
<svg version="1.1" xmlns="http://www.w3.org/2000/svg" xmlns:xlink="http://www.w3.org/1999/xlink" x="0px" y="0px"
	 viewBox="0 0 2000 2000" style="enable-background:new 0 0 2000 2000;" xml:space="preserve">
<style type="text/css">
	.st0{fill:#ED8544;stroke:#7F3B08;stroke-width:28.0885;stroke-linecap:round;stroke-linejoin:round;stroke-miterlimit:10;}
	.st1{fill:#D5703A;}
	.st2{fill:#F9BA91;}
	.st3{fill:#7F3B08;}
	.st4{fill:#FF6699;stroke:#368A9E;stroke-width:71.7383;stroke-miterlimit:10;}
	.st5{fill:#52EEF9;}
	.st6{fill:#FFFFFF;}
	.st7{fill:#33CAC0;}
</style>
<g id="Cone">
	<g>
		<path class="st0" d="M903.75,777.43c312.61-160.28,486.58-497.45,504.51-526.15c15.86-25.37,21.62-31.9,45.29-25.66
			c23.67,6.24,21.86,19.78,20.75,28.06c-1.11,8.28-40.05,418.96-41.72,437.12c-1.67,18.16-1.13,42.74-20.18,41.34l0,0
			c-3.91-0.29-7.34,2.6-7.71,6.5l-21.88,228.22c-0.85,6.06-1.83,13.57-2.65,20.94c-1.61,14.5-40.88,22.33-50.54,24.04
			c-1.38,0.24-2.79,0.08-4.08-0.47l-231.09-98.48c-0.18-0.08-0.36-0.16-0.53-0.25C1085.7,908.3,876.05,791.64,903.75,777.43z"/>
		<path class="st1" d="M1417.23,714c1.67-18.16,41.93-454.44,43.04-462.71c0.84-6.29,3.59-8.97-12.55-12.55l0,0
			c0,0-50.22,547-150.65,659.99"/>
		<path class="st2" d="M1447.72,238.73c-10.76-1.79-12.55-7.17-34.08,30.49c-12.14,21.24-104.94,195.32-274.4,355.1l10.7,56.81
			C1353.43,511.07,1447.72,238.73,1447.72,238.73L1447.72,238.73z"/>
		<g>
			<path class="st3" d="M1311.32,542.42l2.06,7.31c0.71,2.46,1.44,4.93,2.2,7.39c1.46,4.93,2.99,9.84,4.59,14.73
				c3.2,9.78,6.5,19.51,10.04,29.15c7.06,19.27,14.75,38.24,23.4,56.66c4.29,9.23,8.84,18.3,13.62,27.22
				c2.36,4.48,4.88,8.85,7.34,13.25c1.24,2.2,2.56,4.34,3.84,6.51l1.93,3.24l2.01,3.19c5.25,8.58,10.92,16.82,16.81,24.86l4.47,5.98
				c1.49,1.99,3.09,3.88,4.63,5.83l2.33,2.9c0.78,0.97,1.61,1.88,2.41,2.82l2.43,2.8l0.61,0.7l0.3,0.35
				c0.1,0.12,0.22,0.21,0.23,0.41c0.01,0.82-1.04,2.56-4.77,6.75l-0.27,0.3c-3.1,3.48-6.78,6.68-10.42,9.26
				c-4.58,3.2-6.48,3.96-7.32,3.79c-0.21-0.05-0.29-0.2-0.41-0.33l-0.33-0.39l-0.67-0.78l-2.68-3.13c-0.88-1.05-1.8-2.07-2.65-3.14
				l-2.55-3.21c-1.68-2.15-3.44-4.26-5.06-6.46l-4.86-6.59c-0.82-1.09-1.6-2.21-2.36-3.34l-2.3-3.37c-1.53-2.25-3.09-4.48-4.52-6.79
				l-4.37-6.87c-1.42-2.31-2.79-4.64-4.16-6.98c-5.43-9.36-10.6-18.85-15.21-28.57c-2.39-4.82-4.56-9.74-6.78-14.62
				c-2.1-4.94-4.22-9.86-6.18-14.84c-7.95-19.89-14.5-40.22-19.84-60.8c-2.64-10.3-5.01-20.66-6.97-31.11
				c-0.98-5.22-1.9-10.45-2.71-15.71c-0.39-2.63-0.75-5.27-1.1-7.92c-0.36-2.66-0.65-5.25-0.91-8.06c-0.37-3.96,2.54-7.46,6.5-7.83
				c3.51-0.33,6.66,1.93,7.59,5.2L1311.32,542.42z"/>
		</g>
		<g>
			<path class="st3" d="M1375.61,412.27l0.56,2.33l0.61,2.46c0.42,1.65,0.87,3.3,1.34,4.95c0.91,3.3,1.9,6.6,2.94,9.88
				c2.09,6.56,4.37,13.06,6.9,19.45c2.46,6.42,5.15,12.75,8.04,18.97c2.85,6.24,5.92,12.37,9.17,18.39
				c6.53,12.02,13.77,23.61,21.74,34.64c4.03,5.48,8.16,10.88,12.55,16.06c2.14,2.64,4.42,5.15,6.67,7.69
				c0.57,0.63,1.11,1.28,1.71,1.89c0.57,0.63,1.22,1.18,1.64,1.95c0.44,0.75,0.69,1.68,0.76,2.79c0.05,1.13-0.06,2.43-0.65,4.2
				l-0.14,0.43c-1.59,4.84-5.57,8.32-10.14,9.58c-1.8,0.48-3.13,0.48-4.3,0.32c-1.15-0.18-2.11-0.55-2.89-1.09
				c-0.79-0.53-1.36-1.26-2.01-1.93c-0.64-0.67-1.24-1.38-1.86-2.07c-2.45-2.79-4.92-5.55-7.24-8.44
				c-4.78-5.67-9.13-11.68-13.42-17.7c-8.37-12.21-15.87-24.99-22.14-38.34c-3.13-6.67-6.09-13.41-8.72-20.28
				c-2.58-6.89-4.93-13.85-7.02-20.89c-2.02-7.06-3.81-14.18-5.25-21.38c-0.69-3.61-1.33-7.23-1.88-10.88
				c-0.25-1.83-0.49-3.66-0.7-5.51l-0.29-2.79l-0.22-2.94c-0.3-3.95,2.66-7.39,6.61-7.69c3.56-0.27,6.72,2.11,7.52,5.48
				L1375.61,412.27z"/>
		</g>
		<g>
			<path class="st3" d="M1348.37,489.9c2.08,0.19,4.41,0.35,6.63,0.47c2.25,0.13,4.51,0.22,6.77,0.29
				c4.52,0.13,9.04,0.15,13.54,0.05c8.99-0.21,17.94-0.85,26.58-2.2c8.64-1.32,17.03-3.39,24.38-6.48c3.64-1.57,6.98-3.41,9.77-5.49
				c2.8-2.08,4.99-4.39,6.48-6.8c3.72-6.01,11.6-7.86,17.6-4.15c6.01,3.72,7.86,11.6,4.15,17.6c-0.26,0.42-0.54,0.82-0.84,1.2
				l-0.31,0.39c-4.03,5.09-8.94,9.01-13.93,11.96c-5.02,2.96-10.15,5.05-15.24,6.66c-10.19,3.09-20.21,4.39-30.05,4.92
				c-4.92,0.28-9.8,0.32-14.65,0.22c-4.85-0.1-9.66-0.33-14.45-0.72c-4.79-0.38-9.55-0.88-14.29-1.49
				c-2.37-0.31-4.74-0.65-7.11-1.02c-2.39-0.37-4.68-0.76-7.2-1.25c-3.89-0.75-6.44-4.51-5.69-8.4c0.7-3.64,4.04-6.11,7.65-5.8
				L1348.37,489.9z"/>
		</g>
		<g>
			<path class="st3" d="M1290.69,660.68l4.41,1.09c1.51,0.36,3.04,0.7,4.57,1.04c3.06,0.68,6.12,1.33,9.2,1.9
				c6.15,1.18,12.32,2.21,18.49,2.95c6.16,0.83,12.32,1.4,18.45,1.69c3.07,0.18,6.12,0.25,9.16,0.31c3.04-0.04,6.07,0,9.08-0.16
				c12.04-0.47,23.79-2.26,34.59-5.83c5.39-1.81,10.5-4.1,15.32-6.77c2.31-1.48,4.72-2.83,6.84-4.53l1.65-1.21
				c0.58-0.37,1-0.92,1.69-1.16c0.67-0.26,1.51-0.33,2.58-0.17c1.09,0.18,2.36,0.52,4.17,1.39l1.3,0.61
				c4.24,2.01,7.22,5.69,8.53,9.84c0.6,1.92,0.64,3.33,0.51,4.56c-0.16,1.21-0.54,2.2-1.09,3c-0.55,0.81-1.29,1.38-2.05,1.93
				l-2.27,1.66c-2.97,2.3-6.21,4.15-9.38,6.1c-6.5,3.61-13.35,6.38-20.28,8.56c-13.93,4.13-28.14,5.61-41.96,5.25
				c-13.86-0.23-27.36-2.42-40.49-5.46c-6.55-1.61-13.01-3.46-19.37-5.63c-3.17-1.09-6.32-2.26-9.45-3.47
				c-1.56-0.64-3.11-1.28-4.66-1.95l-2.33-1.02l-2.4-1.13c-3.59-1.69-5.14-5.97-3.45-9.56c1.48-3.15,4.96-4.73,8.22-3.92
				L1290.69,660.68z"/>
		</g>
	</g>
</g>
<g id="Body">
	<g>
		<path class="st4" d="M1449.23,1397.73c0.46-3.35,0.85-7.73,1.1-13.03c0.74-15.2,3.55-30.21,8.12-44.72
			c2.72-8.63,5.31-17.52,7.76-26.67c7.13-26.58,7.95-54.47,2.67-81.48c-15.29-78.29-25.9-135.46-44.48-187.83
			c-44.59-125.67-29.87-202.56,58.83-321.88c0.76-1.02-0.15-2.44-1.39-2.16c-95.07,21.57-147.07,87.45-209.42,161.75
			c-0.91,1.08-2.66,0.24-2.38-1.15c26.15-129.48-43.99-203.72-113.92-275.85c-71.06-73.29-118.92-155.6-122.68-259.52
			c-2.57-70.85,24.4-136.31,45.5-206.04c0.31-1.04-0.66-2.02-1.7-1.72C861.34,199.47,764.96,366.13,817.6,577.53
			c15.63,62.76,34.63,124.92,19.17,190.79c-8.43,35.91-25.53,63.17-63.08,65.93c-39.86,2.92-75.94-23.47-86.61-61.98
			c-6.07-21.92-10.28-44.31-16.52-72.3c-0.27-1.21-1.89-1.47-2.52-0.4c-50.21,85.98-49.09,176.92-57.59,270.48
			c-0.1,1.1-1.41,1.64-2.26,0.92c-42.62-35.9-78.57-67.66-130.66-76.36c-0.99-0.17-1.82,0.78-1.54,1.74
			c12.44,43.6,23.84,83.54,35.24,123.48c0.03,0.09,0.04,0.19,0.05,0.29c7.43,117.16,16.37,124.43-19.48,359.27
			c-2.17,14.19-1.6,25.97,1.25,35.81c0.18,0.62-0.09,1.27-0.66,1.57c-20.82,11.25-34,28.85-41.01,45.48
			c-8.79,20.86-11.44,69.6,21.23,89.76c0.07,0.04,0.13,0.09,0.19,0.14c55.63,50.37,73.66,91.82,55.77,152.75
			c-21.02,71.59-71.74,138.1,3.59,156.03c62.91,14.98,56.42-72.76,57.19-122.36c0.7-45.55,35.14-82.31,66.46-91.56
			c0.1-0.03,0.2-0.05,0.31-0.06c35.44-2.3,112.43-12.29,148.02,35.07c37.34,49.69,98.2,84.16,153.39,90.85
			c55.19,6.69,78.07-3.19,148.42-47.05s70.46-14.95,143.67-7.88c73.21,7.06,94.58-49.96,99.11-87.35
			c4.53-37.39,22.77-38.79,55.95-29.35c33.18,9.44,111.52,18.93,144.16-71.06c30.9-85.19-86.13-126.78-98.69-130.97
			C1449.53,1398.99,1449.14,1398.37,1449.23,1397.73z"/>
		<path class="st5" d="M1449.23,1397.69c0.49-3.6,0.9-8.4,1.15-14.24c0.61-13.96,3.05-27.78,7.31-41.08c3-9.4,5.85-19.1,8.53-29.12
			c7.03-26.25,7.77-53.79,2.4-80.43c-12.44-61.76-26.54-138.97-44.23-188.83c-44.57-125.64-29.87-202.52,58.76-321.79
			c0.78-1.05-0.16-2.51-1.43-2.22c-94.95,21.59-146.93,87.38-209.21,161.61c-0.94,1.12-2.74,0.25-2.46-1.18
			c26.06-129.38-44.05-203.59-113.95-275.69c-71.06-73.29-118.92-155.6-122.68-259.52c-2.57-70.83,24.38-136.27,45.48-205.96
			c0.32-1.07-0.68-2.08-1.75-1.77C861.32,199.51,764.96,366.15,817.6,577.53c15.63,62.76,34.63,124.92,19.17,190.79
			c-8.43,35.91-25.53,63.17-63.08,65.93c-39.86,2.92-75.94-23.47-86.61-61.98c-6.06-21.9-10.27-44.26-16.5-72.2
			c-0.28-1.25-1.95-1.51-2.6-0.41c-50.14,85.93-49.04,176.81-57.53,270.31c-0.1,1.13-1.45,1.68-2.32,0.95
			c-42.58-35.86-78.51-67.59-130.54-76.3c-1.02-0.17-1.87,0.8-1.59,1.79c11.01,38.59,21.21,74.31,31.31,109.7
			c2.61,9.13,4.24,18.5,4.89,27.98c7.16,104.18,13.97,120.15-20.41,345.31c-2.16,14.17-1.6,25.95,1.24,35.77
			c0.18,0.64-0.1,1.31-0.68,1.62c-20.8,11.25-33.97,28.84-40.98,45.46c-8.79,20.86-11.44,69.59,21.22,89.76
			c0.07,0.04,0.13,0.09,0.19,0.15c55.62,50.37,73.66,91.82,55.77,152.75c-21.02,71.59-71.74,138.1,3.59,156.03
			c62.91,14.98,56.42-72.76,57.19-122.36c0.7-45.54,35.13-82.31,66.46-91.56c0.11-0.03,0.21-0.05,0.32-0.06
			c35.45-2.3,112.42-12.29,148.01,35.07c37.34,49.69,98.2,84.16,153.39,90.85c55.19,6.69,78.07-3.19,148.42-47.05
			s70.46-14.95,143.67-7.88c73.21,7.06,94.58-49.96,99.11-87.35c4.53-37.39,22.77-38.79,55.95-29.35
			c33.18,9.44,111.52,18.93,144.16-71.06c30.88-85.13-85.95-126.72-98.66-130.96C1449.54,1398.99,1449.14,1398.36,1449.23,1397.69z"
			/>
	</g>
</g>
<g id="Eyes">
	<g>
		<g>
			<ellipse cx="890.15" cy="1157.88" rx="41.45" ry="83.4"/>
			<ellipse class="st6" cx="903.29" cy="1130.59" rx="18.2" ry="24.77"/>
		</g>
		<g>
			<ellipse cx="1108.49" cy="1157.88" rx="41.45" ry="83.4"/>
			<ellipse class="st6" cx="1121.64" cy="1130.59" rx="18.2" ry="24.77"/>
		</g>
	</g>
</g>
<g id="Highlight">
	<g>
		<path class="st6" d="M924.42,1675.07c0,0,44.67,54.03,96.57-5.15c51.9-59.18,91.47-94.84,126.38-75.22c0,0-45.41-1.02-79.68,48.76
			C1033.43,1693.23,946.33,1771.68,924.42,1675.07z"/>
		<path class="st6" d="M1311.42,1583.83c0,0,26.9-73.53,95.05-32.28C1406.47,1551.55,1327.56,1479.81,1311.42,1583.83z"/>
		<path class="st6" d="M1045.98,181.34c0,0-199.07,68.15-209.83,272.61c-8.21,156.07,79.37,262.85,19.73,365.87
			c-39.46,68.15-125.54,28.7-125.54,28.7s80.71,71.47,157.82-24.35s-3.59-241.09-3.59-323.59S889.95,326.61,1045.98,181.34z"/>
	</g>
</g>
<g id="Shadow">
	<g>
		<path class="st7" d="M1361.63,957.91c26.9,134.51,96.16,276.69,82.5,355.1c-13.66,78.42-32.28,130.92,21.52,143.48
			c52.9,12.34,86.86,132.65-82.28,140.12l21.3,4.61c33.18,9.44,111.52,18.93,144.16-71.06c32.64-89.99-99.77-131.32-99.77-131.32
			c0.51-3.38,0.95-7.99,1.24-13.69c0.78-15.5,3.63-30.81,8.28-45.62c3.93-12.52,7.59-25.57,10.95-39.16
			c4.64-18.74,5.05-38.28,1.18-57.2c-12.95-63.26-27.63-146.49-46.32-199.17c-44.95-126.7-30.68-202.37,59.97-323.38
			C1484.37,720.61,1334.73,823.4,1361.63,957.91z"/>
		<g>
			<path class="st7" d="M1406.12,1601.62c-0.48-0.16-0.96-0.3-1.44-0.4C1405.15,1601.35,1405.63,1601.49,1406.12,1601.62z"/>
			<path class="st7" d="M1249.62,1717.93c73.21,7.06,94.58-49.96,99.11-87.35c2.63-21.73,9.91-31.29,22.04-33.65
				c-20.92-0.43-42.01,4.43-55.77,22.77c-21.52,28.7-60.98,26.9-118.37,7.17s-105.81,57.39-188.31,111.19
				c-82.5,53.8-170.38-73.53-209.87-131.02c-39.49-57.48-148.82-5.29-197.24,10.85c-48.42,16.14-52.01-39.46-98.64-84.29
				c-46.63-44.84-9.2-117.38-9.2-117.38c-21.39,11.22-34.87,29.11-41.99,46c-8.8,20.88-11.44,69.7,21.33,89.82
				c55.7,50.41,73.76,91.87,55.86,152.83c-21.02,71.59-71.74,138.1,3.59,156.03c62.91,14.98,56.42-72.76,57.19-122.36
				c0.7-45.62,35.25-82.43,66.62-91.6c35.37-2.28,112.53-12.37,148.18,35.06c37.34,49.69,98.2,84.16,153.39,90.85
				c55.19,6.69,78.07-3.19,148.42-47.05S1176.41,1710.86,1249.62,1717.93z"/>
		</g>
	</g>
</g>
<g id="Droplet">
	<path class="st5" d="M579.69,1678.88c0,0-66.36,111.19-60.98,136.3s36.63,32.28,45.22,0S554.58,1752.41,579.69,1678.88z"/>
	<g>
	</g>
	<g>
	</g>
	<g>
	</g>
	<g>
	</g>
	<g>
	</g>
	<g>
	</g>
	<g>
	</g>
	<g>
	</g>
	<g>
	</g>
	<g>
	</g>
	<g>
	</g>
	<g>
	</g>
	<g>
	</g>
	<g>
	</g>
	<g>
	</g>
</g>
</svg>
